<?xml version="1.0" standalone="no"?>
<!DOCTYPE svg PUBLIC "-//W3C//DTD SVG 1.1//EN" "http://www.w3.org/Graphics/SVG/1.1/DTD/svg11.dtd" >
<svg xmlns="http://www.w3.org/2000/svg">
<metadata>Generated by IcoMoon</metadata>
<defs>
<font id="icomoon" horiz-adv-x="1024">
<font-face units-per-em="1024" ascent="960" descent="-64" />
<missing-glyph horiz-adv-x="1024" />
<glyph unicode="&#x20;" horiz-adv-x="512" d="" />
<glyph unicode="&#xe900;" glyph-name="add-photos" d="M102.4 755.2h-102.4v-716.8c0-56.32 46.080-102.4 102.4-102.4h716.8v102.4h-716.8v716.8zM921.6 960h-614.4c-56.32 0-102.4-46.080-102.4-102.4v-614.4c0-56.32 46.080-102.4 102.4-102.4h614.4c56.32 0 102.4 46.080 102.4 102.4v614.4c0 56.32-46.080 102.4-102.4 102.4zM870.4 499.2h-204.8v-204.8h-102.4v204.8h-204.8v102.4h204.8v204.8h102.4v-204.8h204.8v-102.4z" />
<glyph unicode="&#xe901;" glyph-name="business" horiz-adv-x="1138" d="M455.111 220.444v56.889h-397.653l-0.569-227.556c0-63.147 50.631-113.778 113.778-113.778h796.444c63.147 0 113.778 50.631 113.778 113.778v227.556h-398.222v-56.889h-227.556zM1024 732.444h-228.124v113.778l-113.778 113.778h-227.556l-113.778-113.778v-113.778h-226.987c-62.578 0-113.778-51.2-113.778-113.778v-170.667c0-63.147 50.631-113.778 113.778-113.778h341.333v113.778h227.556v-113.778h341.333c62.578 0 113.778 51.2 113.778 113.778v170.667c0 62.578-51.2 113.778-113.778 113.778zM682.667 732.444h-227.556v113.778h227.556v-113.778z" />
<glyph unicode="&#xe902;" glyph-name="delete-forever" horiz-adv-x="796" d="M56.889 49.778c0-62.578 51.2-113.778 113.778-113.778h455.111c62.578 0 113.778 51.2 113.778 113.778v682.667h-682.667v-682.667zM196.836 454.827l80.213 80.213 121.173-120.604 120.604 120.604 80.213-80.213-120.604-120.604 120.604-120.604-80.213-80.213-120.604 120.604-120.604-120.604-80.213 80.213 120.604 120.604-121.173 120.604zM597.333 903.111l-56.889 56.889h-284.444l-56.889-56.889h-199.111v-113.778h796.444v113.778h-199.111z" />
<glyph unicode="&#xe905;" glyph-name="download" horiz-adv-x="843" d="M843.294 598.588h-240.941v361.412h-361.412v-361.412h-240.941l421.647-421.647 421.647 421.647zM0 56.471v-120.471h843.294v120.471h-843.294z" />
<glyph unicode="&#xe906;" glyph-name="laundry-service" horiz-adv-x="819" d="M264.704 200.704c79.872-79.872 209.92-79.872 289.792 0s79.872 209.92 0 289.792l-289.792-289.792zM716.8 959.488l-614.4 0.512c-56.832 0-102.4-45.568-102.4-102.4v-819.2c0-56.832 45.568-102.4 102.4-102.4h614.4c56.832 0 102.4 45.568 102.4 102.4v819.2c0 56.832-45.568 101.888-102.4 101.888zM307.2 857.6c28.16 0 51.2-23.040 51.2-51.2s-23.040-51.2-51.2-51.2c-28.16 0-51.2 23.040-51.2 51.2s23.040 51.2 51.2 51.2zM153.6 857.6c28.16 0 51.2-23.040 51.2-51.2s-23.040-51.2-51.2-51.2c-28.16 0-51.2 23.040-51.2 51.2s23.040 51.2 51.2 51.2zM409.6 38.4c-169.472 0-307.2 137.728-307.2 307.2s137.728 307.2 307.2 307.2c169.472 0 307.2-137.728 307.2-307.2s-137.728-307.2-307.2-307.2z" />
<glyph unicode="&#xe907;" glyph-name="plus" d="M614.4 550.4v409.6h-204.8v-409.6h-409.6v-204.8h409.6v-409.6h204.8v409.6h409.6v204.8h-409.6z" />
<glyph unicode="&#xe908;" glyph-name="reorder-black" horiz-adv-x="1317" d="M0 228.571h1316.571v146.286h-1316.571v-146.286zM0-64h1316.571v146.286h-1316.571v-146.286zM0 521.143h1316.571v146.286h-1316.571v-146.286zM0 960v-146.286h1316.571v146.286h-1316.571z" />
<glyph unicode="&#xe909;" glyph-name="restaurant" horiz-adv-x="922" d="M409.6 601.6h-102.4v358.4h-102.4v-358.4h-102.4v358.4h-102.4v-358.4c0-108.544 84.992-196.608 192-203.264v-462.336h128v462.336c107.008 6.656 192 94.72 192 203.264v358.4h-102.4v-358.4zM665.6 755.2v-409.6h128v-409.6h128v1024c-141.312 0-256-114.688-256-204.8z" />
<glyph unicode="&#xe90a;" glyph-name="search-domain" horiz-adv-x="819" d="M819.2 59.392v593.408l-307.2 307.2h-409.6c-56.32 0-101.888-46.080-101.888-102.4l-0.512-819.2c0-56.32 45.568-102.4 101.888-102.4h614.912c23.040 0 43.52 7.68 60.928 20.48l-226.816 226.816c-40.96-26.624-89.088-42.496-141.312-42.496-141.312 0-256 114.688-256 256s114.688 256 256 256c141.312 0 256-114.688 256-256 0-52.224-15.872-100.352-42.496-140.8l196.096-196.608zM256 396.8c0-84.992 68.608-153.6 153.6-153.6s153.6 68.608 153.6 153.6c0 84.992-68.608 153.6-153.6 153.6s-153.6-68.608-153.6-153.6z" />
<glyph unicode="&#xe90b;" glyph-name="unfold-less" horiz-adv-x="640" d="M0 26.24l90.88-90.24 202.88 202.88 202.88-202.88 90.24 90.24-293.12 293.76-293.76-293.76zM587.52 869.76l-90.88 90.24-202.88-202.88-202.88 202.88-90.88-90.24 293.76-293.76 293.76 293.76z" />
<glyph unicode="&#xe90c;" glyph-name="unfold-more" horiz-adv-x="569" d="M284.444 799.004l180.338-180.338 80.213 80.213-260.551 261.12-261.12-261.12 80.782-80.213 180.338 180.338zM284.444 96.996l-180.338 180.338-80.213-80.213 260.551-261.12 261.12 261.12-80.782 80.213-180.338-180.338z" />
<glyph unicode="&#xe90d;" glyph-name="account" horiz-adv-x="926" d="M97.524 521.143v-341.333h146.286v341.333h-146.286zM390.095 521.143v-341.333h146.286v341.333h-146.286zM0-64h926.476v146.286h-926.476v-146.286zM682.667 521.143v-341.333h146.286v341.333h-146.286zM463.238 960l-463.238-243.81v-97.524h926.476v97.524l-463.238 243.81z" />
<glyph unicode="&#xe90e;" glyph-name="activity" horiz-adv-x="1280" d="M1152 448c0 70.4 57.6 128 128 128v256c0 70.4-57.6 128-128 128h-1024c-70.4 0-127.36-57.6-127.36-128v-256c70.4 0 127.36-57.6 127.36-128s-56.96-128-128-128v-256c0-70.4 57.6-128 128-128h1024c70.4 0 128 57.6 128 128v256c-70.4 0-128 57.6-128 128zM869.12 140.8l-229.12 147.2-229.12-147.2 69.12 263.68-210.56 172.16 271.36 16 99.2 252.16 98.56-252.8 271.36-16-210.56-172.16 69.76-263.040z" />
<glyph unicode="&#xe90f;" glyph-name="booking" horiz-adv-x="922" d="M307.2 499.2h-102.4v-102.4h102.4v102.4zM512 499.2h-102.4v-102.4h102.4v102.4zM716.8 499.2h-102.4v-102.4h102.4v102.4zM819.2 857.6h-51.2v102.4h-102.4v-102.4h-409.6v102.4h-102.4v-102.4h-51.2c-56.832 0-101.888-46.080-101.888-102.4l-0.512-716.8c0-56.32 45.568-102.4 102.4-102.4h716.8c56.32 0 102.4 46.080 102.4 102.4v716.8c0 56.32-46.080 102.4-102.4 102.4zM819.2 38.4h-716.8v563.2h716.8v-563.2z" />
<glyph unicode="&#xe910;" glyph-name="content-approval" d="M512 704c0 23.467-19.2 42.667-42.667 42.667h-221.013l28.16 135.68 0.853 9.813c0 13.227-5.547 25.173-14.080 34.133l-33.707 33.707-210.773-210.773c-11.52-11.52-18.773-27.733-18.773-45.227v-277.333c0-35.413 28.587-64 64-64h288c26.453 0 49.067 16.213 58.88 38.827l96.427 225.707c2.987 7.253 4.693 15.36 4.693 23.467v53.333zM960 533.333h-288c-26.453 0-49.067-16.213-58.88-38.827l-96.427-225.707c-2.987-7.253-4.693-15.36-4.693-23.467v-53.333c0-23.467 19.2-42.667 42.667-42.667h221.013l-28.16-135.68-0.853-10.24c0-13.227 5.547-25.173 14.080-34.133l33.707-33.28 210.773 210.773c11.52 11.52 18.773 27.733 18.773 45.227v277.333c0 35.413-28.587 64-64 64z" />
<glyph unicode="&#xe911;" glyph-name="currency" horiz-adv-x="1280" d="M576 128h128v64h64c35.2 0 64 28.8 64 64v192c0 35.2-28.8 64-64 64h-192v64h256v128h-128v64h-128v-64h-64c-35.2 0-64-28.8-64-64v-192c0-35.2 28.8-64 64-64h192v-64h-256v-128h128v-64zM1152 960h-1024c-71.040 0-127.36-56.96-127.36-128l-0.64-768c0-71.040 56.96-128 128-128h1024c71.040 0 128 56.96 128 128v768c0 71.040-56.96 128-128 128zM1152 64h-1024v768h1024v-768z" />
<glyph unicode="&#xe912;" glyph-name="dashboard" d="M0 391.111h455.111v568.889h-455.111v-568.889zM0-64h455.111v341.333h-455.111v-341.333zM568.889-64h455.111v568.889h-455.111v-568.889zM568.889 960v-341.333h455.111v341.333h-455.111z" />
<glyph unicode="&#xe913;" glyph-name="domain" horiz-adv-x="1138" d="M568.889 732.444v227.556h-568.889v-1024h1137.778v796.444h-568.889zM227.556 49.778h-113.778v113.778h113.778v-113.778zM227.556 277.333h-113.778v113.778h113.778v-113.778zM227.556 504.889h-113.778v113.778h113.778v-113.778zM227.556 732.444h-113.778v113.778h113.778v-113.778zM455.111 49.778h-113.778v113.778h113.778v-113.778zM455.111 277.333h-113.778v113.778h113.778v-113.778zM455.111 504.889h-113.778v113.778h113.778v-113.778zM455.111 732.444h-113.778v113.778h113.778v-113.778zM1024 49.778h-455.111v113.778h113.778v113.778h-113.778v113.778h113.778v113.778h-113.778v113.778h455.111v-568.889zM910.222 504.889h-113.778v-113.778h113.778v113.778zM910.222 277.333h-113.778v-113.778h113.778v113.778z" />
<glyph unicode="&#xe914;" glyph-name="faq" d="M972.8 755.2h-102.4v-460.8h-665.6v-102.4c0-28.16 23.040-51.2 51.2-51.2h563.2l204.8-204.8v768c0 28.16-23.040 51.2-51.2 51.2zM768 448v460.8c0 28.16-23.040 51.2-51.2 51.2h-665.6c-28.16 0-51.2-23.040-51.2-51.2v-716.8l204.8 204.8h512c28.16 0 51.2 23.040 51.2 51.2z" />
<glyph unicode="&#xe915;" glyph-name="geodata" d="M512 960c-282.624 0-512-229.376-512-512s229.376-512 512-512c282.624 0 512 229.376 512 512s-229.376 512-512 512zM460.8 41.984c-202.24 25.088-358.4 197.12-358.4 406.016 0 31.744 4.096 61.952 10.752 91.648l245.248-245.248v-51.2c0-56.32 46.080-102.4 102.4-102.4v-98.816zM814.080 172.032c-13.312 41.472-51.2 71.168-97.28 71.168h-51.2v153.6c0 28.16-23.040 51.2-51.2 51.2h-307.2v102.4h102.4c28.16 0 51.2 23.040 51.2 51.2v102.4h102.4c56.32 0 102.4 46.080 102.4 102.4v20.992c150.016-60.928 256-207.872 256-379.392 0-106.496-40.96-203.264-107.52-275.968z" />
<glyph unicode="&#xe916;" glyph-name="help" d="M512 960c-282.624 0-512-229.376-512-512s229.376-512 512-512c282.624 0 512 229.376 512 512s-229.376 512-512 512zM563.2 89.6h-102.4v102.4h102.4v-102.4zM669.184 486.4l-46.080-47.104c-36.864-37.376-59.904-68.096-59.904-144.896h-102.4v25.6c0 56.32 23.040 107.52 59.904 144.896l63.488 64.512c18.944 18.432 30.208 44.032 30.208 72.192 0 56.32-46.080 102.4-102.4 102.4s-102.4-46.080-102.4-102.4h-102.4c0 113.152 91.648 204.8 204.8 204.8s204.8-91.648 204.8-204.8c0-45.056-18.432-86.016-47.616-115.2z" />
<glyph unicode="&#xe917;" glyph-name="hotel" horiz-adv-x="1502" d="M409.6 413.867c113.323 0 204.8 91.477 204.8 204.8s-91.477 204.8-204.8 204.8c-113.323 0-204.8-91.477-204.8-204.8s91.477-204.8 204.8-204.8zM1228.8 823.467h-546.133v-477.867h-546.133v614.4h-136.533v-1024h136.533v204.8h1228.8v-204.8h136.533v614.4c0 150.869-122.197 273.067-273.067 273.067z" />
<glyph unicode="&#xe918;" glyph-name="label" horiz-adv-x="1390" d="M1070.080 898.56c-26.331 37.303-70.217 61.44-119.223 61.44l-804.571-0.731c-80.457 0-146.286-65.097-146.286-145.554v-731.429c0-80.457 65.829-145.554 146.286-145.554l804.571-0.731c49.006 0 92.891 24.137 119.223 61.44l319.634 450.56-319.634 450.56zM950.857 82.286h-804.571v731.429h804.571l259.657-365.714-259.657-365.714z" />
<glyph unicode="&#xe919;" glyph-name="markup" horiz-adv-x="626" d="M329.956 510.578c-129.138 33.564-170.667 68.267-170.667 122.311 0 62.009 57.458 105.244 153.6 105.244 101.262 0 138.809-48.356 142.222-119.467h125.724c-3.982 97.849-63.716 187.733-182.613 216.747v124.587h-170.667v-122.88c-110.364-23.893-199.111-95.573-199.111-205.369 0-131.413 108.658-196.836 267.378-234.951 142.222-34.133 170.667-84.196 170.667-137.102 0-39.253-27.876-101.831-153.6-101.831-117.191 0-163.271 52.338-169.529 119.467h-125.156c6.827-124.587 100.124-194.56 209.351-217.884v-123.449h170.667v122.311c110.933 21.049 199.111 85.333 199.111 201.956 0 161.564-138.24 216.747-267.378 250.311z" />
<glyph unicode="&#xe91a;" glyph-name="report" d="M384-64h256v1024h-256v-1024zM0-64h256v512h-256v-512zM768 640v-704h256v704h-256z" />
<glyph unicode="&#xe91b;" glyph-name="route" d="M995.556 960l-9.102-1.707-303.787-117.76-341.333 119.467-320.853-108.089c-11.947-3.982-20.48-14.222-20.48-27.307v-860.16c0-15.929 12.516-28.444 28.444-28.444l9.102 1.707 303.787 117.76 341.333-119.467 320.853 108.089c11.947 3.982 20.48 14.222 20.48 27.307v860.16c0 15.929-12.516 28.444-28.444 28.444zM682.667 49.778l-341.333 120.036v676.409l341.333-120.036v-676.409z" />
<glyph unicode="&#xe91c;" glyph-name="tour" horiz-adv-x="970" d="M484.514 68.581l-397.204 308.817-87.309-67.907 485.053-377.263 485.053 377.263-87.848 68.446-397.743-309.356zM485.053 205.474l485.053 377.263-485.053 377.263-485.053-377.263 87.848-68.446 397.204-308.817z" />
<glyph unicode="&#xe91d;" glyph-name="transport" horiz-adv-x="973" d="M972.8 243.2v102.4l-409.6 256v281.6c0 42.496-34.304 76.8-76.8 76.8s-76.8-34.304-76.8-76.8v-281.6l-409.6-256v-102.4l409.6 128v-281.6l-102.4-76.8v-76.8l179.2 51.2 179.2-51.2v76.8l-102.4 76.8v281.6l409.6-128z" />
<glyph unicode="&#xe91e;" glyph-name="user-round" d="M0 846.222v-796.444c0-62.862 50.916-113.778 113.778-113.778h796.444c62.862 0 113.778 50.916 113.778 113.778v796.444c0 62.862-50.916 113.778-113.778 113.778h-796.444c-62.862 0-113.778-50.916-113.778-113.778zM682.667 618.667c0-94.436-76.516-170.667-170.667-170.667s-170.667 76.231-170.667 170.667c0 94.151 76.516 170.667 170.667 170.667s170.667-76.516 170.667-170.667zM170.667 163.556c0 113.778 227.556 176.356 341.333 176.356s341.333-62.578 341.333-176.356v-56.889h-682.667v56.889z" />
<glyph unicode="&#xe91f;" glyph-name="user" horiz-adv-x="1609" d="M1097.143 521.143c121.417 0 218.697 98.011 218.697 219.429s-97.28 219.429-218.697 219.429c-121.417 0-219.429-98.011-219.429-219.429s98.011-219.429 219.429-219.429zM512 521.143c121.417 0 218.697 98.011 218.697 219.429s-97.28 219.429-218.697 219.429c-121.417 0-219.429-98.011-219.429-219.429s98.011-219.429 219.429-219.429zM512 374.857c-170.423 0-512-85.577-512-256v-182.857h1024v182.857c0 170.423-341.577 256-512 256zM1097.143 374.857c-21.211 0-45.349-1.463-70.949-3.657 84.846-61.44 144.091-144.091 144.091-252.343v-182.857h438.857v182.857c0 170.423-341.577 256-512 256z" />
</font>
</defs>
</svg>
